<svg xmlns="http://www.w3.org/2000/svg" viewBox="0 0 792.6 796.56"><defs><style>.cls-1,.cls-2{fill:none;stroke:#231f20;stroke-miterlimit:10;}.cls-2{stroke-width:0.75px;}</style></defs><title>GKPlotProfile</title><g id="Block_Line" data-name="Block Line"><polygon class="cls-1" points="508.09 564.18 516.91 564.18 775.75 552.08 792.1 552.3 792.1 443.18 772.06 443.18 508.09 446.61 508.09 564.18"/><polygon class="cls-1" points="471.74 771.07 463.02 771.07 11.36 754.32 3.37 754.32 3.37 744.7 3.51 612.33 16.33 612.33 473.43 594.98 473.43 603.5 471.74 771.07"/><polygon class="cls-1" points="506.77 590.13 505.76 775.51 517.98 775.51 775.61 796.06 791 796.06 791 570.9 772.13 570.9 513.34 590.13 506.77 590.13"/><polygon class="cls-1" points="472.44 570.24 463.84 570.24 11.88 587.07 3.51 587.07 3.37 475.04 15.4 474.71 472.44 451.29 472.44 570.24"/><polygon class="cls-1" points="0.75 444.32 15.53 444.32 45.49 445.81 472.02 423.24 472.02 305.04 463.32 305.04 296 312.83 61.55 326.41 12.5 359.27 0.5 359.39 0.75 444.32"/><polygon class="cls-1" points="789.14 411.68 771.75 411.68 508.44 417.68 507.98 308.65 517.28 308.65 776.63 302.91 789.14 302.91 789.14 411.68"/><polygon class="cls-1" points="789.24 271.41 789.14 163.55 770.01 163.55 640.77 161.67 517.69 170.8 507.98 170.8 507.98 281.75 571.91 281.75 653.22 277.26 789.24 271.41"/><polygon class="cls-1" points="514.87 136.19 514.83 39.07 576.23 9.3 589.89 6.47 789.83 0.52 789.86 132.04 598.13 132.04 514.87 136.19"/><polygon class="cls-1" points="482.42 92.49 476.61 277.05 353.47 280.18 119.36 291.68 115.66 291.68 135.73 271.26 475.33 92.49 482.42 92.49"/></g><g id="Plot_Profile" data-name="Plot Profile"><polygon class="cls-1" points="515.84 599.89 566.92 595.75 566.92 708.83 515.84 708.83 515.84 599.89"/><polygon class="cls-1" points="684.53 587.07 660.19 588.94 660.19 696.81 684.53 696.81 684.53 587.07"/><polygon class="cls-1" points="720.33 583.69 684.53 587.07 684.53 696.81 720.33 696.81 720.33 583.69"/><polygon class="cls-1" points="773.67 579.48 720.33 583.69 720.33 696.81 773.67 696.81 773.67 579.48"/><polygon class="cls-1" points="773.67 785.18 714.6 780.35 714.6 696.81 773.67 696.81 773.67 785.18"/><polygon class="cls-1" points="515.84 764.77 714.6 780.35 714.6 696.81 566.92 701.59 566.92 708.83 515.84 708.83 515.84 764.77"/><polygon class="cls-1" points="566.92 595.75 622.96 591.8 622.96 699.78 566.92 701.59 566.92 595.75"/><polygon class="cls-1" points="660.19 588.94 622.96 591.8 622.96 699.78 660.19 698.57 660.19 588.94"/><polygon class="cls-1" points="514.83 453.46 514.83 552.3 553.78 550.14 553.78 453.46 514.83 453.46"/><polygon class="cls-1" points="585.5 452.18 585.5 501.17 553.78 501.17 553.78 453.46 585.5 452.18"/><polygon class="cls-1" points="585.5 549.71 553.78 550.14 553.78 501.17 585.5 501.17 585.5 549.71"/><rect class="cls-1" x="585.5" y="452.18" width="40.68" height="44.23"/><polygon class="cls-1" points="626.17 548.21 585.5 549.71 585.5 496.41 626.17 496.41 626.17 548.21"/><polygon class="cls-1" points="657.77 451.29 657.77 498.78 626.17 498.78 626.17 452.18 657.77 451.29"/><polygon class="cls-1" points="657.77 547.05 626.17 548.21 626.17 498.78 657.77 498.78 657.77 547.05"/><polygon class="cls-1" points="709.5 451.29 709.5 545.16 657.77 547.05 657.77 451.29 709.5 451.29"/><polygon class="cls-1" points="732.02 450.03 732.02 498.78 709.5 498.78 709.5 451.29 732.02 450.03"/><polygon class="cls-1" points="732.02 544.33 709.5 545.16 709.5 498.78 732.02 498.78 732.02 544.33"/><polygon class="cls-1" points="773.67 450.03 773.67 499.17 732.02 498.78 732.02 450.03 773.67 450.03"/><polygon class="cls-1" points="773.67 542.8 732.02 544.33 732.02 498.78 773.67 499.17 773.67 542.8"/><polygon class="cls-1" points="514.83 315.5 515.04 382.7 537.9 382.7 537.9 315.5 514.83 315.5"/><polygon class="cls-1" points="514.83 413.13 515.04 382.7 537.9 382.7 537.9 412.39 514.83 413.13"/><polygon class="cls-1" points="558.22 313.71 558.22 375.42 537.9 375.42 537.9 315.5 558.22 313.71"/><polygon class="cls-1" points="558.22 411.74 537.9 412.39 537.9 375.42 558.22 375.42 558.22 411.74"/><rect class="cls-1" x="558.22" y="313.71" width="21.88" height="58.48"/><polygon class="cls-1" points="580.1 411.04 558.22 411.74 558.22 372.19 580.1 372.19 580.1 411.04"/><polygon class="cls-1" points="629.83 312.91 629.83 372.19 580.1 372.19 580.1 313.71 629.83 312.91"/><polygon class="cls-1" points="601.58 409.99 601.58 372.19 580.1 372.19 580.1 411.04 601.58 409.99"/><polygon class="cls-1" points="629.83 409.44 629.83 372.19 601.58 372.19 601.58 409.99 629.83 409.44"/><polygon class="cls-1" points="663.88 311.91 663.88 364.35 629.83 364.35 629.83 312.91 663.88 311.91"/><polygon class="cls-1" points="646.85 408.89 646.85 364.35 629.83 364.35 629.83 409.44 646.85 408.89"/><polygon class="cls-1" points="663.88 408.35 663.88 364.35 646.85 364.35 646.85 408.89 663.88 408.35"/><polygon class="cls-1" points="684.53 407.69 684.53 311.59 663.88 311.91 663.88 408.35 684.53 407.69"/><polygon class="cls-1" points="723.23 405.8 723.23 361.45 684.53 361.45 684.53 407.69 723.23 405.8"/><polygon class="cls-1" points="723.23 310.88 723.23 361.45 684.53 361.45 684.53 311.59 723.23 310.88"/><polygon class="cls-1" points="773.67 309.76 773.67 404.83 723.23 405.8 723.23 310.88 773.67 309.76"/><polygon class="cls-1" points="679.39 266.35 611.21 271.98 611.21 211.92 679.39 211.92 679.39 266.35"/><polygon class="cls-1" points="679.39 170.66 615.71 170.66 611.21 211.92 679.39 211.92 679.39 170.66"/><polygon class="cls-1" points="727.56 170.66 727.56 266.19 679.39 266.35 679.39 170.66 727.56 170.66"/><polygon class="cls-1" points="773.57 170.59 773.57 264.56 727.56 266.19 727.56 170.66 773.57 170.59"/><polygon class="cls-1" points="615.71 170.66 611.21 271.98 521.69 271.98 521.68 207.88 560.51 207.46 560.51 174.07 615.71 170.66"/><polygon class="cls-1" points="521.68 176.24 521.68 207.88 560.51 207.46 560.51 174.07 521.68 176.24"/><polygon class="cls-1" points="521.69 47.3 521.69 128.62 552.46 127.11 552.46 34.29 521.69 47.3"/><polygon class="cls-1" points="590.27 17.25 552.46 34.29 552.46 127.11 590.27 125.44 590.27 17.25"/><polygon class="cls-1" points="629.48 15.35 629.48 72.18 590.27 72.18 590.27 17.25 629.48 15.35"/><polygon class="cls-1" points="629.48 125.19 590.27 125.44 590.27 72.18 629.48 72.18 629.48 125.19"/><rect class="cls-1" x="629.48" y="15.35" width="22.87" height="109.84"/><polygon class="cls-1" points="675.22 125.44 675.22 66.31 652.35 66.31 652.35 125.19 675.22 125.44"/><polygon class="cls-1" points="703.48 125.19 703.48 62.26 675.22 62.26 675.22 125.44 703.48 125.19"/><polygon class="cls-1" points="725.02 124.22 725.02 62.26 703.48 62.26 703.48 125.19 725.02 124.22"/><polygon class="cls-1" points="747.61 124.8 747.61 62.26 725.02 62.26 725.02 124.22 747.61 124.8"/><polygon class="cls-1" points="772.95 125.19 773.57 62.26 747.61 62.26 747.61 124.8 772.95 125.19"/><polygon class="cls-1" points="772.95 12.47 773.57 62.26 747.61 62.26 747.61 13.13 772.95 12.47"/><polygon class="cls-1" points="675.22 15.03 747.61 13.13 747.61 62.26 675.22 62.26 675.22 15.03"/><rect class="cls-1" x="652.35" y="15.35" width="22.88" height="50.96"/><polygon class="cls-1" points="465.9 599.84 465.9 764.83 435.61 764.83 435.61 601.23 465.9 599.84"/><polygon class="cls-1" points="394.65 602.45 435.61 601.23 435.61 764.83 394.65 762.24 394.65 602.45"/><polygon class="cls-1" points="366.91 604.43 394.65 602.45 394.65 762.24 366.91 761.23 366.91 604.43"/><polygon class="cls-1" points="344.45 605.09 366.91 604.43 366.91 761.23 344.45 760.41 344.45 605.09"/><polygon class="cls-1" points="317.37 605.75 344.45 605.09 344.45 760.41 317.37 759.43 317.37 605.75"/><polygon class="cls-1" points="290.95 607.73 317.37 605.75 317.37 759.43 290.95 758.47 290.95 607.73"/><polygon class="cls-1" points="271.13 608.39 290.95 607.73 290.95 758.47 271.13 757.75 271.13 608.39"/><polygon class="cls-1" points="229.52 610.38 271.13 608.39 271.13 721.34 229.52 721.34 229.52 610.38"/><polygon class="cls-1" points="195.18 612.36 229.52 610.38 229.52 756.24 195.18 755 195.18 612.36"/><polygon class="cls-1" points="162.15 613.68 195.18 612.36 195.18 755 162.15 753.8 162.15 613.68"/><polygon class="cls-1" points="134.41 615 162.15 613.68 162.15 753.8 134.41 752.79 134.41 615"/><polygon class="cls-1" points="89.49 616.98 134.41 615 134.41 752.79 89.49 751.16 89.49 616.98"/><polygon class="cls-1" points="13.59 620.68 89.49 616.98 89.49 751.16 13.59 748.4 13.59 620.68"/><polygon class="cls-1" points="229.52 755.14 271.13 757 271.13 721.34 229.52 721.34 229.52 755.14"/><polygon class="cls-1" points="465.87 310.78 465.87 364.35 399.38 364.35 399.38 314.77 465.87 310.78"/><polygon class="cls-1" points="465.87 415.4 399.38 417.68 399.38 364.35 465.87 364.35 465.87 415.4"/><polygon class="cls-1" points="369.74 420.18 399.38 417.68 399.38 364.35 369.74 364.35 369.74 420.18"/><polygon class="cls-1" points="369.74 316.56 399.38 314.77 399.38 364.35 369.74 364.35 369.74 316.56"/><polygon class="cls-1" points="338.15 318.52 369.74 316.56 369.74 381.33 338.15 381.33 338.15 318.52"/><polygon class="cls-1" points="338.15 422.03 369.74 420.18 369.74 381.33 338.15 381.33 338.15 422.03"/><polygon class="cls-1" points="295.48 424.41 338.15 422.03 338.15 318.52 295.48 321.02 295.48 424.41"/><polygon class="cls-1" points="268.1 425.62 295.48 423.93 295.48 375.42 268.1 375.42 268.1 425.62"/><polygon class="cls-1" points="281.79 321.67 281.79 375.42 295.48 375.42 295.48 321.02 281.79 321.67"/><polygon class="cls-1" points="268.1 322.32 268.1 375.42 281.79 375.42 281.79 321.67 268.1 322.32"/><polygon class="cls-1" points="252.4 426.42 252.4 323.61 268.1 322.66 268.1 425.62 252.4 426.42"/><polygon class="cls-1" points="230.66 428.03 230.66 375.42 252.4 375.42 252.4 426.42 230.66 428.03"/><polygon class="cls-1" points="230.66 324.91 252.4 323.61 252.4 375.42 230.66 375.42 230.66 324.91"/><polygon class="cls-1" points="207.31 429.24 230.66 428.03 230.66 375.42 218.98 375.42 207.31 375.42 207.31 429.24"/><polygon class="cls-1" points="218.98 325.61 218.98 375.42 230.66 375.42 230.66 324.91 218.98 325.61"/><polygon class="cls-1" points="207.31 326.31 207.31 375.42 218.98 375.42 218.98 325.61 207.31 326.31"/><rect class="cls-1" x="193.21" y="375.42" width="14.09" height="53.82"/><polygon class="cls-1" points="173.49 430.85 193.21 429.24 193.21 375.42 173.49 375.42 173.49 430.85"/><polygon class="cls-1" points="193.21 327.16 193.21 375.42 207.31 375.42 207.31 326.31 193.21 327.16"/><polygon class="cls-1" points="173.49 328.35 173.49 375.42 193.21 375.42 193.21 327.16 173.49 328.35"/><polygon class="cls-1" points="155.77 328.59 155.77 375.42 173.49 375.42 173.49 328.35 155.77 328.59"/><rect class="cls-1" x="155.77" y="375.42" width="17.71" height="55.43"/><polygon class="cls-1" points="127.19 432.86 155.77 430.85 155.77 375.42 127.19 375.42 127.19 432.86"/><polygon class="cls-1" points="127.19 331.13 127.19 375.42 155.77 375.42 155.77 328.59 127.19 331.13"/><polygon class="cls-1" points="100.61 332.21 100.61 374.54 127.19 375.42 127.19 331.13 100.61 332.21"/><polygon class="cls-1" points="100.61 434.34 127.19 432.86 127.19 375.42 100.61 374.54 100.61 434.34"/><polygon class="cls-1" points="64.43 334.9 64.43 436.26 46.35 437.26 13.7 435.64 13.7 366.19 64.43 334.9"/><polygon class="cls-1" points="64.43 334.85 100.61 332.49 100.61 381.45 64.43 382.94 64.43 334.85"/><polygon class="cls-1" points="64.43 435.28 100.61 433.32 100.61 382.19 64.43 382.19 64.43 435.28"/><polygon class="cls-1" points="476.61 101.48 469.46 268.99 405.57 270.03 405.57 138.93 476.61 101.48"/><polygon class="cls-1" points="380.78 270.03 405.57 270.03 405.57 138.93 380.78 152 380.78 270.03"/><polygon class="cls-1" points="341.89 271.98 380.78 270.03 380.78 152 338.15 174.47 341.89 271.98"/><polygon class="cls-1" points="304.64 274.57 341.89 271.98 338.15 174.47 299.04 195.08 304.64 274.57"/><polygon class="cls-1" points="263.33 276.29 304.64 274.57 299.04 195.08 260.25 215.53 263.33 276.29"/><polygon class="cls-1" points="218.98 278.65 263.33 276.29 260.25 215.53 218.98 237.28 218.98 278.65"/><polygon class="cls-1" points="132.67 282.77 218.98 278.65 218.98 237.28 132.67 282.77"/><polygon class="cls-1" points="465.37 459.68 445.65 460.68 445.65 518.25 465.37 518.25 465.37 459.68"/><rect class="cls-1" x="445.65" y="518.25" width="19.72" height="42.54"/><polygon class="cls-1" points="418.11 562.2 445.65 560.79 445.65 518.25 418.11 518.25 418.11 562.2"/><polygon class="cls-1" points="415.13 462.37 445.65 460.68 445.65 518.25 418.11 518.25 415.13 462.37"/><polygon class="cls-1" points="394.65 463.47 415.13 462.37 418.11 518.25 394.65 518.25 394.65 463.47"/><rect class="cls-1" x="394.65" y="518.25" width="23.46" height="43.95"/><polygon class="cls-1" points="366.91 564.18 394.65 562.2 394.65 513.6 366.91 513.6 366.91 564.18"/><polygon class="cls-1" points="366.91 464.96 394.65 463.47 394.65 513.6 366.91 513.6 366.91 464.96"/><polygon class="cls-1" points="338.15 466.5 366.91 464.96 366.91 513.6 338.15 513.6 338.15 466.5"/><rect class="cls-1" x="338.15" y="513.6" width="28.76" height="50.59"/><polygon class="cls-1" points="317.37 566.04 338.15 564.18 338.15 513.6 316.81 513.6 317.37 566.04"/><polygon class="cls-1" points="317.37 467.61 316.81 513.6 338.15 513.6 338.15 466.5 317.37 467.61"/><polygon class="cls-1" points="298.23 467.7 298.23 513.6 316.81 513.6 317.37 467.61 298.23 467.7"/><polygon class="cls-1" points="298.23 566.72 317.37 566.04 316.81 513.6 298.23 513.6 298.23 566.72"/><polygon class="cls-1" points="274.94 567.55 298.23 566.72 298.23 513.6 274.94 513.6 274.94 567.55"/><polygon class="cls-1" points="274.94 469.88 274.94 513.6 298.23 513.6 298.23 467.7 274.94 469.88"/><polygon class="cls-1" points="252.4 471.09 252.4 513.6 274.94 513.6 274.94 469.88 252.4 471.09"/><polygon class="cls-1" points="252.4 568.35 274.94 567.55 274.94 513.6 252.4 513.6 252.4 568.35"/><polygon class="cls-1" points="230.66 568.35 230.66 472.32 252.4 471.09 252.4 568.35 230.66 568.35"/><polygon class="cls-1" points="213.14 569.74 213.14 473.19 230.66 472.32 230.66 568.35 213.14 569.74"/><polygon class="cls-1" points="193.21 570.45 192.62 474.3 213.14 473.19 213.14 569.74 193.21 570.45"/><polygon class="cls-1" points="169.16 571.92 169.16 475.55 192.62 474.3 193.21 570.45 169.16 571.92"/><polygon class="cls-1" points="141.48 572.28 141.48 519.72 169.16 518.25 169.16 571.92 141.48 572.28"/><polygon class="cls-1" points="141.48 477.04 141.48 519.72 169.16 518.25 169.16 475.55 141.48 477.04"/><polygon class="cls-1" points="111.95 478.62 113.9 573.26 141.48 572.28 141.48 477.04 111.95 478.62"/><polygon class="cls-1" points="89.49 479.82 89.49 574.13 113.9 573.26 111.95 478.62 89.49 479.82"/><polygon class="cls-1" points="73.58 574.62 73.58 526.37 89.49 525.65 89.49 574.13 73.58 574.62"/><polygon class="cls-1" points="56.3 575.16 56.3 526.37 73.58 526.37 73.58 574.62 56.3 575.16"/><polygon class="cls-1" points="35.24 576.24 35.24 526.37 56.3 526.37 56.3 575.16 35.24 576.24"/><polygon class="cls-1" points="13.45 576.82 13.45 526.37 35.24 526.37 35.24 576.24 13.45 576.82"/><polygon class="cls-1" points="43.34 482.28 43.34 526.37 89.49 525.65 89.49 479.82 43.34 482.28"/><polygon class="cls-1" points="13.45 483.9 13.45 526.37 43.34 526.37 43.34 482.28 13.45 483.9"/></g></svg>