<svg xmlns="http://www.w3.org/2000/svg" viewBox="0 0 817.13 806.01"><defs><style>.cls-1,.cls-3,.cls-4{fill:none;}.cls-1{stroke:#231f20;}.cls-1,.cls-2,.cls-3,.cls-4{stroke-miterlimit:10;}.cls-2{fill:#c2b59b;}.cls-2,.cls-3,.cls-4{stroke:#ef4136;}.cls-2,.cls-4{stroke-width:3px;}</style></defs><title>GKGasLines</title><g id="Block_Line" data-name="Block Line"><polygon class="cls-1" points="521.72 573.64 530.54 573.64 789.39 561.53 805.74 561.75 805.74 452.63 785.69 452.63 521.72 456.06 521.72 573.64"/><polygon class="cls-1" points="485.37 780.53 476.65 780.53 24.99 763.77 17 763.77 17 754.15 17.14 621.79 29.96 621.79 487.06 604.43 487.06 612.95 485.37 780.53"/><polygon class="cls-1" points="520.4 599.58 519.39 784.96 531.61 784.96 789.25 805.51 804.63 805.51 804.63 580.35 785.76 580.35 526.98 599.58 520.4 599.58"/><polygon class="cls-1" points="486.07 579.69 477.48 579.69 25.51 596.52 17.14 596.52 17 484.5 29.03 484.17 486.07 460.74 486.07 579.69"/><polygon class="cls-1" points="14.38 453.77 29.16 453.77 59.12 455.26 485.65 432.7 485.65 314.49 476.95 314.49 309.63 322.29 75.19 335.86 26.13 368.72 14.13 368.85 14.38 453.77"/><polygon class="cls-1" points="802.77 421.13 785.38 421.13 522.08 427.13 521.61 318.1 530.92 318.1 790.26 312.37 802.77 312.37 802.77 421.13"/><polygon class="cls-1" points="802.87 280.86 802.77 173 783.64 173 654.41 171.12 531.32 180.25 521.61 180.25 521.61 291.21 585.54 291.21 666.85 286.71 802.87 280.86"/><polygon class="cls-1" points="528.5 145.64 528.46 48.53 589.86 18.75 603.52 15.93 803.46 9.97 803.49 141.5 611.76 141.5 528.5 145.64"/><polygon class="cls-1" points="496.06 101.94 490.24 286.5 367.1 289.63 132.99 301.13 129.29 301.13 149.36 280.71 488.96 101.94 496.06 101.94"/></g><g id="Gas_Lines" data-name="Gas Lines"><polyline class="cls-2" points="815.63 805.51 815.63 573.64 815.63 0"/><polyline class="cls-3" points="815.63 573.64 805.92 574.15 541 593.14 32.35 617.19 17.14 617.19"/><polyline class="cls-3" points="815.63 446.72 521.72 452.63 487.06 452.63 14.13 477.05 1.5 477.05"/><polyline class="cls-3" points="815.63 307.62 521.72 312.37 486.07 307.62 70.39 330.33 14.13 361.93 1.5 361.93"/><polyline class="cls-3" points="521.72 171.12 654.41 163.48 815.63 167.3"/><line class="cls-4" x1="1.5" y1="477.05" x2="1.5" y2="349.22"/></g></svg>