<svg xmlns="http://www.w3.org/2000/svg" viewBox="0 0 804.02 806.01"><defs><style>.cls-1,.cls-2,.cls-5{fill:none;}.cls-1{stroke:#231f20;}.cls-1,.cls-2,.cls-3,.cls-4,.cls-5{stroke-miterlimit:10;}.cls-2,.cls-3,.cls-5{stroke:#009444;}.cls-3{fill:#c2b59b;}.cls-3,.cls-5{stroke-width:3px;}.cls-4{fill:#009444;stroke:#fff;stroke-width:0.5px;}</style></defs><title>GKSewageLines</title><g id="Block_Line" data-name="Block Line"><polygon class="cls-1" points="508.61 573.64 517.43 573.64 776.27 561.53 792.62 561.75 792.62 452.63 772.58 452.63 508.61 456.06 508.61 573.64"/><polygon class="cls-1" points="472.26 780.53 463.53 780.53 11.87 763.77 3.89 763.77 3.89 754.15 4.03 621.79 16.84 621.79 473.95 604.43 473.95 612.95 472.26 780.53"/><polygon class="cls-1" points="507.29 599.58 506.28 784.96 518.5 784.96 776.13 805.51 791.52 805.51 791.52 580.35 772.64 580.35 513.86 599.58 507.29 599.58"/><polygon class="cls-1" points="472.95 579.69 464.36 579.69 12.39 596.52 4.03 596.52 3.89 484.5 15.91 484.17 472.95 460.74 472.95 579.69"/><polygon class="cls-1" points="1.27 453.77 16.05 453.77 46.01 455.26 472.54 432.7 472.54 314.49 463.83 314.49 296.51 322.29 62.07 335.86 13.01 368.72 1.02 368.85 1.27 453.77"/><polygon class="cls-1" points="789.66 421.13 772.26 421.13 508.96 427.13 508.5 318.1 517.8 318.1 777.14 312.37 789.66 312.37 789.66 421.13"/><polygon class="cls-1" points="789.75 280.86 789.66 173 770.53 173 641.29 171.12 518.21 180.25 508.5 180.25 508.5 291.21 572.43 291.21 653.73 286.71 789.75 280.86"/><polygon class="cls-1" points="515.38 145.64 515.35 48.53 576.74 18.75 590.4 15.93 790.35 9.97 790.38 141.5 598.65 141.5 515.38 145.64"/><polygon class="cls-1" points="482.94 101.94 477.13 286.5 353.99 289.63 119.87 301.13 116.18 301.13 136.24 280.71 475.84 101.94 482.94 101.94"/></g><g id="Sewage"><polyline class="cls-2" points="802.52 149.3 641.43 147.66 599.46 147.66 494.52 156.57"/><polyline class="cls-3" points="802.52 805.51 802.52 573.64 802.52 0"/><circle class="cls-4" cx="790.38" cy="149.3" r="3.64"/><circle class="cls-4" cx="725.54" cy="149.3" r="3.64"/><circle class="cls-4" cx="675.65" cy="148.57" r="3.64"/><circle class="cls-4" cx="641.43" cy="147.66" r="3.64"/><circle class="cls-4" cx="557.61" cy="151.94" r="3.64"/><polyline class="cls-5" points="489.31 750.45 489.31 285.74 496.72 101.94"/><circle class="cls-4" cx="515.35" cy="154.94" r="3.64"/><polyline class="cls-2" points="90.01 306.95 393.69 295.36 489.31 301.15 538.42 295.36 580.62 295.36 802.52 285.5"/><polyline class="cls-2" points="1.02 459.49 46.29 462.91 101.13 459.49 119.67 474.41 473.95 455.26 489.31 443.8 508.61 449.46 802.52 447.06"/><polyline class="cls-2" points="3.89 609.29 142 604.43 213.66 593.14 250.85 605.2 308.32 605.2 338.67 588.94 367.43 604.43 473.95 598.39 489.31 588.94 508.61 593.14 611.21 586.12 769.67 575.5 802.52 573.64"/><circle class="cls-4" cx="496.72" cy="102.98" r="3.64"/><circle class="cls-4" cx="495.24" cy="141.07" r="3.64"/><circle class="cls-4" cx="494.65" cy="156.58" r="3.64"/><circle class="cls-4" cx="493.52" cy="180.11" r="3.64"/><circle class="cls-4" cx="490.95" cy="238.39" r="3.64"/><circle class="cls-4" cx="488.88" cy="301.13" r="3.64"/><circle class="cls-4" cx="526.89" cy="296.9" r="3.64"/><circle class="cls-4" cx="611.73" cy="294.84" r="3.64"/><circle class="cls-4" cx="591.36" cy="296.23" r="3.64"/><circle class="cls-4" cx="678.36" cy="291.21" r="3.64"/><circle class="cls-4" cx="753.66" cy="288.21" r="3.64"/><circle class="cls-4" cx="789.76" cy="286.5" r="3.64"/><circle class="cls-4" cx="393.69" cy="294.84" r="3.64"/><circle class="cls-4" cx="343.93" cy="297.49" r="3.64"/><circle class="cls-4" cx="263.85" cy="300.13" r="3.64"/><circle class="cls-4" cx="180.23" cy="304.31" r="3.64"/><circle class="cls-4" cx="90.01" cy="306.95" r="3.64"/><circle class="cls-4" cx="791.52" cy="446.69" r="3.64"/><circle class="cls-4" cx="732.53" cy="446.94" r="3.64"/><circle class="cls-4" cx="661.92" cy="448.43" r="3.64"/><circle class="cls-4" cx="621.05" cy="448.43" r="3.64"/><circle class="cls-4" cx="569.67" cy="448.43" r="3.64"/><circle class="cls-4" cx="508.61" cy="448.43" r="3.64"/><circle class="cls-4" cx="488.76" cy="444.8" r="3.64"/><circle class="cls-4" cx="489.31" cy="375.37" r="3.64"/><circle class="cls-4" cx="472.54" cy="455.27" r="3.64"/><circle class="cls-4" cx="414.99" cy="457.99" r="3.64"/><circle class="cls-4" cx="367.43" cy="460.74" r="3.64"/><circle class="cls-4" cx="325.73" cy="462.91" r="3.64"/><circle class="cls-4" cx="262.52" cy="466.55" r="3.64"/><circle class="cls-4" cx="169.68" cy="471.83" r="3.64"/><circle class="cls-4" cx="120.22" cy="474.41" r="3.64"/><circle class="cls-4" cx="101.13" cy="459.27" r="3.64"/><circle class="cls-4" cx="46.29" cy="462.91" r="3.64"/><circle class="cls-4" cx="728.9" cy="577.84" r="3.64"/><circle class="cls-4" cx="685.05" cy="581.47" r="3.64"/><circle class="cls-4" cx="567.43" cy="588.94" r="3.64"/><circle class="cls-4" cx="489.62" cy="588.94" r="3.64"/><circle class="cls-4" cx="489.62" cy="527.7" r="3.64"/><circle class="cls-4" cx="472.95" cy="598.39" r="3.64"/><circle class="cls-4" cx="415.65" cy="602.03" r="3.64"/><circle class="cls-4" cx="367.43" cy="604.43" r="3.64"/><circle class="cls-4" cx="338.67" cy="588.94" r="3.64"/><circle class="cls-4" cx="308.32" cy="605.2" r="3.64"/><circle class="cls-4" cx="252.91" cy="605.67" r="3.64"/><circle class="cls-4" cx="213.66" cy="594.76" r="3.64"/><circle class="cls-4" cx="90.01" cy="605.67" r="3.64"/><circle class="cls-4" cx="3.89" cy="609.31" r="3.64"/><circle class="cls-4" cx="489.31" cy="749.08" r="3.64"/></g></svg>