<svg xmlns="http://www.w3.org/2000/svg" viewBox="0 0 815.63 806.01"><defs><style>.cls-1,.cls-3{fill:none;}.cls-1{stroke:#231f20;}.cls-1,.cls-2,.cls-3{stroke-miterlimit:10;}.cls-2{fill:#c2b59b;stroke-width:3px;}.cls-2,.cls-3{stroke:#27aae1;}</style></defs><title>GKWaterLines</title><g id="Block_Line" data-name="Block Line"><polygon class="cls-1" points="520.22 573.64 529.04 573.64 787.89 561.53 804.24 561.75 804.24 452.63 784.19 452.63 520.22 456.06 520.22 573.64"/><polygon class="cls-1" points="483.87 780.53 475.15 780.53 23.49 763.77 15.5 763.77 15.5 754.15 15.64 621.79 28.46 621.79 485.56 604.43 485.56 612.95 483.87 780.53"/><polygon class="cls-1" points="518.9 599.58 517.89 784.96 530.11 784.96 787.75 805.51 803.13 805.51 803.13 580.35 784.26 580.35 525.48 599.58 518.9 599.58"/><polygon class="cls-1" points="484.57 579.69 475.98 579.69 24.01 596.52 15.64 596.52 15.5 484.5 27.53 484.17 484.57 460.74 484.57 579.69"/><polygon class="cls-1" points="12.88 453.77 27.66 453.77 57.62 455.26 484.15 432.7 484.15 314.49 475.45 314.49 308.13 322.29 73.69 335.86 24.63 368.72 12.63 368.85 12.88 453.77"/><polygon class="cls-1" points="801.27 421.13 783.88 421.13 520.58 427.13 520.11 318.1 529.42 318.1 788.76 312.37 801.27 312.37 801.27 421.13"/><polygon class="cls-1" points="801.37 280.86 801.27 173 782.14 173 652.91 171.12 529.82 180.25 520.11 180.25 520.11 291.21 584.04 291.21 665.35 286.71 801.37 280.86"/><polygon class="cls-1" points="527 145.64 526.96 48.53 588.36 18.75 602.02 15.93 801.96 9.97 801.99 141.5 610.26 141.5 527 145.64"/><polygon class="cls-1" points="494.56 101.94 488.74 286.5 365.6 289.63 131.49 301.13 127.79 301.13 147.86 280.71 487.46 101.94 494.56 101.94"/></g><g id="Water"><polyline class="cls-2" points="814.13 805.51 814.13 573.64 814.13 0"/><polyline class="cls-3" points="814.13 573.64 804.42 574.15 539.5 593.14 30.85 617.19 15.64 617.19"/><polyline class="cls-3" points="814.13 446.72 520.22 452.63 485.56 452.63 12.63 477.05 0 477.05"/><polyline class="cls-3" points="520.22 155.12 652.91 147.48 814.13 151.3"/><polyline class="cls-3" points="73.18 327.53 488.74 305.94 520.22 310.12 814.13 305.94"/></g></svg>